<?xml version="1.0" encoding="utf-8"?>
<!-- Generator: Adobe Illustrator 26.0.1, SVG Export Plug-In . SVG Version: 6.00 Build 0)  -->
<svg version="1.1" id="Lager_1" xmlns="http://www.w3.org/2000/svg" xmlns:xlink="http://www.w3.org/1999/xlink" x="0px" y="0px"
	 viewBox="0 0 364 128.08" style="enable-background:new 0 0 364 128.08;" xml:space="preserve">
<style type="text/css">
	.st0{fill:none;}
	.st1{opacity:0.48;}
	.st2{fill:#FFFFFF;}
	.st3{opacity:0.54;}
	.st4{fill:#FF5F0A;}
	.st5{fill:#FFF0AF;}
	.st6{display:none;}
	.st7{display:inline;}
	.st8{display:inline;fill:#FF5F0A;}
	.st9{fill:none;stroke:#FF5F0A;stroke-width:8;stroke-miterlimit:10;}
	.st10{display:inline;fill:none;stroke:#FF5F0A;stroke-width:8;stroke-miterlimit:10;}
	.st11{fill:#870AA0;}
	.st12{fill:#FFCD32;}
</style>
<g id="Logo3">
	<g>
		<path class="st2" d="M270.9,37.07c-13.6,0-25.8,5.97-34.13,15.43c-8.34-9.46-20.53-15.43-34.13-15.43
			c-8.29,0-16.05,2.23-22.74,6.1v-6.1h-22.75v45.05c0,0.15-0.01,0.3-0.01,0.45h0.01v45.5h22.75V82.13
			c0.24-12.34,10.34-22.31,22.74-22.31c12.54,0,22.75,10.21,22.75,22.75h0.02l0,0h0.02v45.5h22.75v-45.5h-0.02
			c0-12.54,10.21-22.75,22.75-22.75s22.75,10.21,22.75,22.75l0,0v45.5h22.75v-45.5C316.39,57.45,296.03,37.07,270.9,37.07z"/>
		<path class="st2" d="M68.67,43.42c-6.79-4.03-14.71-6.34-23.17-6.34C20.37,37.08,0,57.45,0,82.58s20.37,45.5,45.5,45.5
			c8.46,0,16.38-2.32,23.17-6.34v6.34h22.75v-91H68.67V43.42z M45.5,105.33c-12.54,0-22.75-10.21-22.75-22.75
			S32.96,59.83,45.5,59.83s22.75,10.21,22.75,22.75S58.04,105.33,45.5,105.33z"/>
		<rect x="337.46" y="37.08" class="st2" width="22.75" height="91"/>
		<rect x="113.33" y="1.69" class="st2" width="22.75" height="126.39"/>
		<path class="st2" d="M348.83,30.34c8.38,0,15.17-6.79,15.17-15.17S357.21,0,348.83,0s-15.17,6.79-15.17,15.17
			C333.67,23.55,340.46,30.34,348.83,30.34z"/>
	</g>
</g>
</svg>
