<?xml version="1.0" encoding="utf-8"?>
<!-- Generator: Adobe Illustrator 26.0.1, SVG Export Plug-In . SVG Version: 6.00 Build 0)  -->
<svg version="1.1" id="Lager_1" xmlns:serif="http://www.serif.com/"
	 xmlns="http://www.w3.org/2000/svg" xmlns:xlink="http://www.w3.org/1999/xlink" x="0px" y="0px" viewBox="0 0 100 100"
	 style="enable-background:new 0 0 100 100;" xml:space="preserve">
<style type="text/css">
	.st0{fill-rule:evenodd;clip-rule:evenodd;fill:#870AA0;}
</style>
<path class="st0" d="M603.7-165.7l0.3,0h-0.1L603.7-165.7L603.7-165.7z M606.4-165.7h-0.1l0.3,0L606.4-165.7z M602.5-165.7l0.4,0
	h-0.2L602.5-165.7z M607.7-165.7h-0.2l0.4,0L607.7-165.7z M601.4-165.7l0.2,0L601.4-165.7L601.4-165.7L601.4-165.7z M608.9-165.7
	l-0.2,0L608.9-165.7L608.9-165.7L608.9-165.7z M610.1-165.8L610.1-165.8l0.2,0L610.1-165.8L610.1-165.8z M600-165.8l0.3,0l-0.1,0
	L600-165.8L600-165.8z M611.4-165.8l-0.2,0l0.4,0L611.4-165.8L611.4-165.8z M598.8-165.8l0.4,0l-0.2,0L598.8-165.8L598.8-165.8z
	 M612.6-165.8l-0.3,0l0.4,0L612.6-165.8z M597.6-165.8l0.4,0l-0.3,0L597.6-165.8L597.6-165.8z M596.2-165.8l0.3,0l-0.1,0
	L596.2-165.8L596.2-165.8z M613.9-165.8L613.9-165.8l0.3,0L613.9-165.8z M595-165.9l0.5,0l-0.2,0L595-165.9z M615.1-165.9l-0.2,0
	l0.5,0L615.1-165.9z M616.3-165.9l-0.3,0l0.5,0L616.3-165.9L616.3-165.9z M593.9-165.9l0.5,0l-0.3,0L593.9-165.9L593.9-165.9z
	 M592.8-165.9l0.3,0L592.8-165.9l-0.3,0L592.8-165.9z M617.6-165.9l-0.3,0L617.6-165.9l0.3,0L617.6-165.9z M618.8-166l-0.2,0l0.5,0
	L618.8-166z M591.2-166l0.5,0l-0.2,0L591.2-166z M590.1-166l0.5,0l-0.3,0L590.1-166z M620-166l-0.3,0l0.5,0L620-166z M589-166.1
	l0.5,0l-0.4,0L589-166.1L589-166.1z M621.2-166.1l-0.4,0l0.5,0L621.2-166.1L621.2-166.1z M587.5-166.1l0.6,0l-0.1,0L587.5-166.1z
	 M622.5-166.1l-0.1,0l0.6,0L622.5-166.1L622.5-166.1z M586.3-166.2l0.6,0l-0.3,0L586.3-166.2z M623.7-166.2l-0.3,0l0.6,0
	L623.7-166.2z M585.3-166.2l0.6,0l-0.4,0L585.3-166.2z M624.9-166.2l-0.4,0l0.6,0L624.9-166.2z M626.2-166.3l-0.5,0L626.2-166.3
	l0.5,0L626.2-166.3L626.2-166.3z M584.3-166.3l0.5,0L584.3-166.3l-0.6,0L584.3-166.3L584.3-166.3z M627.4-166.4l-0.2,0l0.6,0
	L627.4-166.4z M582.6-166.4l0.6,0l-0.2,0L582.6-166.4z M581.5-166.4l0.6,0l-0.4,0L581.5-166.4L581.5-166.4z M628.6-166.4l-0.4,0
	l0.6,0L628.6-166.4L628.6-166.4z M580.5-166.5l0.5,0L580.5-166.5l-0.5,0L580.5-166.5L580.5-166.5z M629.8-166.5l-0.5,0L629.8-166.5
	l0.5,0L629.8-166.5L629.8-166.5z M631-166.6l-0.2,0l0.6,0L631-166.6L631-166.6z M578.9-166.6l0.6,0l-0.2,0L578.9-166.6z
	 M577.8-166.7l0.6,0l-0.3,0L577.8-166.7L577.8-166.7z M632.3-166.7l-0.3,0l0.6,0L632.3-166.7z M576.8-166.8l0.5,0l-0.4,0
	L576.8-166.8L576.8-166.8z M633.5-166.8l-0.4,0l0.5,0L633.5-166.8L633.5-166.8z M575.3-166.9l0.5,0l-0.1,0L575.3-166.9z
	 M634.7-166.8l-0.1,0l0.5,0L634.7-166.8z M635.9-166.9l-0.2,0l0.5,0L635.9-166.9z M574.2-167l0.5,0l-0.2,0L574.2-167L574.2-167z
	 M573.1-167l0.4,0l-0.3,0L573.1-167z M637.1-167l-0.3,0l0.4,0L637.1-167z M571.9-167.2l0.1,0L571.9-167.2L571.9-167.2L571.9-167.2z
	 M638.4-167.1L638.4-167.1L638.4-167.1L638.4-167.1L638.4-167.1z M639.6-167.2l-0.1,0l0.3,0L639.6-167.2L639.6-167.2z M570.6-167.3
	l0.3,0l-0.1,0L570.6-167.3L570.6-167.3z M569.5-167.4l0.2,0L569.5-167.4L569.5-167.4z M640.8-167.4l-0.1,0L640.8-167.4L640.8-167.4z
	 M42.2,100C18.3,96.2,0,75.4,0,50.3C0,22.5,22.4,0,50,0s50,22.5,50,50.3c0,25.1-18.3,45.9-42.2,49.7V64.8h11.7l2.2-14.5H57.8v-9.4
	c0-4,1.9-7.9,8.1-7.9h6.3V20.6c0,0-5.7-1-11.2-1c-11.4,0-18.9,7-18.9,19.6v11.1H29.5v14.5h12.7V100z"/>
</svg>
