<?xml version="1.0" encoding="utf-8"?>
<!-- Generator: Adobe Illustrator 26.0.1, SVG Export Plug-In . SVG Version: 6.00 Build 0)  -->
<svg version="1.1" id="Lager_1" xmlns:serif="http://www.serif.com/"
	 xmlns="http://www.w3.org/2000/svg" xmlns:xlink="http://www.w3.org/1999/xlink" x="0px" y="0px" viewBox="0 0 100 100"
	 style="enable-background:new 0 0 100 100;" xml:space="preserve">
<style type="text/css">
	.st0{fill-rule:evenodd;clip-rule:evenodd;fill:#FFFFFF;}
</style>
<path class="st0" d="M50,0c27.6,0,50,22.4,50,50s-22.4,50-50,50S0,77.6,0,50S22.4,0,50,0z M34.4,78.1v-39h-13v39H34.4z M81.2,78.1
	V55.7c0-12-6.4-17.6-14.9-17.6c-6.9,0-10,3.8-11.7,6.4v-5.5h-13c0.2,3.7,0,39,0,39h13V56.3c0-1.2,0.1-2.3,0.4-3.2
	c0.9-2.3,3.1-4.7,6.7-4.7c4.7,0,6.6,3.6,6.6,8.8v20.9H81.2L81.2,78.1z M28,20.2c-4.4,0-7.3,2.9-7.3,6.7c0,3.7,2.8,6.7,7.2,6.7h0.1
	c4.5,0,7.3-3,7.3-6.7C35.1,23.1,32.4,20.2,28,20.2L28,20.2z"/>
</svg>
