<?xml version="1.0" encoding="utf-8"?>
<!-- Generator: Adobe Illustrator 26.0.1, SVG Export Plug-In . SVG Version: 6.00 Build 0)  -->
<svg version="1.1" id="Lager_1" xmlns:serif="http://www.serif.com/"
	 xmlns="http://www.w3.org/2000/svg" xmlns:xlink="http://www.w3.org/1999/xlink" x="0px" y="0px" viewBox="0 0 100 100"
	 style="enable-background:new 0 0 100 100;" xml:space="preserve">
<style type="text/css">
	.st0{fill-rule:evenodd;clip-rule:evenodd;fill:#870AA0;}
</style>
<path class="st0" d="M50,0c27.6,0,50,22.4,50,50s-22.4,50-50,50S0,77.6,0,50S22.4,0,50,0z M41.2,76.6c22.1,0,34.2-18.3,34.2-34.2
	c0-0.5,0-1,0-1.5c2.3-1.7,4.4-3.8,6-6.2c-2.1,0.9-4.5,1.6-6.9,1.9c2.5-1.5,4.4-3.8,5.3-6.7c-2.3,1.4-4.9,2.4-7.6,2.9
	C70,30.4,66.8,29,63.4,29c-6.6,0-12,5.4-12,12c0,0.9,0.1,1.9,0.3,2.7c-10-0.5-18.9-5.3-24.8-12.6c-1,1.8-1.6,3.8-1.6,6
	c0,4.2,2.1,7.9,5.4,10c-2,0-3.8-0.6-5.4-1.5v0.1c0,5.8,4.1,10.7,9.7,11.8c-1,0.3-2.1,0.4-3.2,0.4c-0.8,0-1.5-0.1-2.3-0.2
	c1.5,4.8,6,8.3,11.2,8.4c-4.1,3.2-9.3,5.1-14.9,5.1c-1,0-1.9-0.1-2.9-0.2C28.1,74.6,34.4,76.6,41.2,76.6L41.2,76.6z"/>
</svg>
