<?xml version="1.0" encoding="utf-8"?>
<!-- Generator: Adobe Illustrator 26.0.1, SVG Export Plug-In . SVG Version: 6.00 Build 0)  -->
<svg version="1.1" xmlns="http://www.w3.org/2000/svg" xmlns:xlink="http://www.w3.org/1999/xlink" x="0px" y="0px"
	 viewBox="0 0 300 258" style="enable-background:new 0 0 300 258;" xml:space="preserve">
<style type="text/css">
	.st0{opacity:0.48;}
	.st1{display:none;}
	.st2{display:inline;}
	.st3{fill:#FF5F0A;}
	.st4{display:inline;fill:#FF5F0A;}
	.st5{fill:none;stroke:#FF5F0A;stroke-width:8;stroke-miterlimit:10;}
	.st6{display:inline;fill:none;stroke:#FF5F0A;stroke-width:8;stroke-miterlimit:10;}
	.st7{fill:#870AA0;}
	.st8{fill:#FFCD32;}
	.st9{fill:#FFFFFF;}
	.st10{fill:#FFF0AF;}
	.st11{fill:#870AA0;stroke:#870AA0;stroke-width:16;stroke-miterlimit:10;}
</style>
<g id="Lager_1">
</g>
<g id="Lager_3" class="st1">
</g>
<g id="Lager_3_kopia" class="st1">
</g>
<g id="Lager_2" class="st1">
</g>
<g id="Lager_5">
	<g>
		<path class="st9" d="M52.02,105.48l0.01-8.08C52.06,73.98,71.06,55,94.48,55h11.9c5.86,0,10.62-4.75,10.62-10.62V23.62
			c0-5.86-4.75-10.62-10.62-10.62H94.57c-46.65,0-84.48,37.79-84.54,84.44L10,121h0v98.45C10,236.87,24.13,251,41.55,251h66.9
			c17.43,0,31.55-14.13,31.55-31.55v-66.9c0-17.43-14.13-31.55-31.55-31.55H67.52C58.95,121,52.01,114.05,52.02,105.48z"/>
		<path class="st9" d="M203.79,105.47l0.01-8.08c0.03-23.43,19.03-42.41,42.45-42.41h11.9c5.86,0,10.62-4.75,10.62-10.62V23.61
			c0-5.86-4.75-10.62-10.62-10.62h-11.82c-46.65,0-84.48,37.79-84.54,84.44l-0.03,23.56h0v98.45c0,17.43,14.13,31.55,31.55,31.55
			h66.9c17.43,0,31.55-14.13,31.55-31.55v-66.9c0-17.43-14.13-31.55-31.55-31.55h-40.93C210.72,120.99,203.78,114.04,203.79,105.47z
			"/>
	</g>
</g>
</svg>
